<svg xmlns="http://www.w3.org/2000/svg" viewBox="0 0 334.87 185.67"><defs><style>.cls-1{fill:#fefefe;}.cls-2{fill:#e2e3e5;}.cls-3{fill:#d8d8d8;}.cls-4{fill:#fdfdfd;}.cls-5{fill:#fcfcfc;}.cls-6{fill:#dfe0e2;}.cls-7{fill:#fbfbfb;}.cls-8{fill:#d7d8da;}.cls-9{fill:#191919;}.cls-10{fill:#111;}.cls-11{fill:#0e0e0e;}.cls-12{fill:#1f1f1f;}.cls-13{fill:#1d1d1d;}.cls-14{fill:#1e1e1e;}</style></defs><title>Asset 2svgLogo</title><g id="Layer_2" data-name="Layer 2"><g id="Layer_1-2" data-name="Layer 1"><path class="cls-1" d="M153.25,104.14c-2.64-13-1.34-25.84,2.28-38.42A90.86,90.86,0,0,1,247.32.1c51.93,2.35,91.74,48,86.87,99.62a34.75,34.75,0,0,1-.95,4.37c-6.66,1.1-7.78.27-7.33-6.34,1.65-24.21-5.57-45.47-22.09-63.09A79.11,79.11,0,0,0,259.09,10.1C213.52,2,170.65,31.39,162.57,76.49c-1.11,6.19-1.86,12.51-.91,18.85a14.91,14.91,0,0,1,.1,1.49C162.11,104.57,161.24,105.32,153.25,104.14Z"/><path class="cls-2" d="M168.28,181.9H329.16c1.17,0,2.33,0,3.5,0s2.31.24,2.2,1.9-1.06,1.89-2.37,1.86c-1,0-2,0-3,0H6.72c-1.16,0-2.33,0-3.49,0-1.55,0-2-.87-1.9-2.24s1-1.48,2.06-1.49c1.34,0,2.67,0,4,0Z"/><path class="cls-3" d="M153.25,104.14c7.44-.23,7.61-.24,7-7.92-2.12-26.1,7.3-47.91,25.57-65.82C198.92,17.53,215,10.19,233.56,7.92c27.37-3.35,50.62,5.26,69.86,24.13,14.82,14.53,22.79,32.75,24,53.75.23,4,.65,7.84-.07,11.79-.84,4.59.35,7.54,5.86,6.5-.56,1.62-1.95.92-2.95.92q-43.29,0-86.58,0c-.39-2.62,1.7-2.24,3.15-2.63,23.15.38,46.29.22,69.44.22,3.64,0,5.21-1.1,5.61-5,3-29.39-13.22-60.09-39.75-74.7A78.43,78.43,0,0,0,165.75,83.22a72.64,72.64,0,0,0-.09,13.91c.33,4,1.65,5.58,5.75,5.46,11-.32,22,.21,33,0,11.82-.22,23.64.1,35.47-.19,1.45.3,2.76.75,2.4,2.68q-41.71,0-83.44-.09C157,105,154.86,106,153.25,104.14Z"/><path class="cls-4" d="M142.68,138.31c-.91,7.63-1.89,13.82-2.29,20.05-.23,3.58-2,3.94-4.84,3.78-3.67-.2-2.15-2.78-2-4.38,1.2-10.56,2.56-21.11,3.89-31.66.16-1.28.1-2.66,1.59-4.1,6.11,10.15,12.14,20.18,18.54,30.84l18.49-30.69,1.1.27q2.3,18.63,4.61,37.27c.22,1.76-.49,2.59-2.17,2.38s-4.19,1.2-4.5-2.21c-.49-5.29-1.16-10.57-1.8-15.85-.18-1.41.26-2.95-1.19-4.81-3.94,6.81-7.7,13.32-11.48,19.83-2.89,5-3.26,5-6.12,0C150.82,152.58,147.13,146.1,142.68,138.31Z"/><path class="cls-4" d="M66.11,136c0,8.26-.06,15.19,0,22.13,0,2.46-.2,4-3.4,4.05-3,0-3.53-1.18-3.51-3.83.11-11.93.05-23.87.05-37.56L86.1,149c0-8.59.09-15.84,0-23.08,0-2.61,1.15-3,3.32-2.94s3.45.24,3.42,2.89c-.11,11.81-.06,23.62-.1,35.43,0,.41-.38.81-.92,1.91Z"/><path class="cls-4" d="M298.79,142.11c0-5.32.12-10.65,0-16-.09-2.86,1.33-3.15,3.67-3.2s3.38.78,3.07,3.14a4.78,4.78,0,0,0,0,1c.4,4.06-1.94,10.15.92,11.79,4.49,2.56,10.68.63,16.14.81,2,.07,1.86-1.44,1.87-2.77,0-3.5.13-7,0-10.49-.13-2.58.72-3.54,3.38-3.48,2.35,0,3.63.34,3.6,3.22-.15,11-.12,22,0,33,0,2.51-1,3.08-3.27,3.06s-4-.28-3.65-3.18a4.78,4.78,0,0,0,0-1c-.39-4.07,1.8-10.55-.93-11.7-4.69-2-10.73-.72-16.2-.77a1.64,1.64,0,0,0-1.79,1.88c0,1.17.36,2.5-.08,3.47-1.64,3.61,3.81,10.92-3.37,10.8s-1.82-7.31-3.1-11.12C298.1,148,298.79,144.94,298.79,142.11Z"/><path class="cls-4" d="M100.85,142.39c0-5.32.1-10.65,0-16-.06-2.53.69-3.54,3.37-3.48,7,.16,14,.11,21,0,2.15,0,3.35.32,3.3,2.94s-1.39,3-3.48,2.95c-4.49-.06-9,.13-13.48-.07-2.86-.13-4.19.44-4.06,3.76.32,8.43-.68,6.69,6.89,6.86,3.33.07,6.66.11,10,0,2.38-.1,3.17.81,3.2,3.19s-1.12,2.69-3.06,2.65c-4.49-.08-9,.16-13.47-.08-3-.17-3.8,1.08-3.5,3.77a18.35,18.35,0,0,1,0,4c-.32,2.6.67,3.51,3.32,3.41,4.82-.18,9.66.05,14.48-.09,2.43-.06,3.14.89,3.15,3.22s-1.11,2.72-3.07,2.7c-7.16-.07-14.32-.12-21.47,0-2.53,0-3.11-1.06-3.07-3.29C100.91,153.38,100.86,147.89,100.85,142.39Z"/><path class="cls-4" d="M204.26,122q7,13.81,13.88,27.51c1.35,2.66,2.83,5.26,4,8,.55,1.37,3.06,3.41.35,4.35-1.92.67-4.86,1.35-6.53-1.76-1.28-2.37-1.39-6.31-4.4-6.69-5.07-.65-10.28-.21-15.43-.16-1.48,0-1.68,1.43-2.2,2.42-.77,1.46-1.49,3-2.17,4.47-1.45,3.22-4.62,2.4-6.5,1.71-2.65-1-.18-3.09.45-4.38,5.16-10.59,10.47-21.09,15.79-31.59C202.1,124.61,202.45,123.06,204.26,122Z"/><path class="cls-4" d="M279.45,122.21a21.63,21.63,0,0,1,11.24,3.89c1.4,1,4,1.81,1.57,4.5-1.73,1.94-2.84,2.43-5.21.62-5.15-3.93-10.71-4.15-15.3-1-5.17,3.55-7.12,8.68-6.29,14.77a13.81,13.81,0,0,0,10.39,11.54,12.36,12.36,0,0,0,11.6-3c2.32-2.11,3.29-.64,4.78.83,2.17,2.14.45,3.12-1,4.27a20.88,20.88,0,0,1-24.29.42,20.42,20.42,0,0,1-7.41-23.1A20.7,20.7,0,0,1,279.45,122.21Z"/><path class="cls-4" d="M10.39,142.6c.54,5.4,2.46,10,7.52,12.72s10.12,2,14.43-1.52c2.35-1.92,3.46-1.42,5.17.57,2.27,2.65-.1,3.52-1.56,4.58a20.3,20.3,0,1,1,0-32.81c1.28,1,3.7,1.65,1.71,4.15-1.62,2-2.85,3.06-5.5.86a12.15,12.15,0,0,0-14.43-1.37C12.78,132.53,10.85,137.15,10.39,142.6Z"/><path class="cls-4" d="M40.86,93.94c1.28,1.08.47,4.59,2.88,3.77,4.81-1.64,5.47-6.17,5.54-10.69,7.31,2.16,12.36,10.45,11.23,18.23a12.47,12.47,0,0,1-12.36,10.83c-5.93.11-10.48-3-12.22-8.37S35.78,97.66,40.86,93.94Z"/><path class="cls-5" d="M240.28,123c4.5,0,9,.07,13.49,0,2.21,0,3.4.46,3.34,3s-1.09,3.06-3.36,3.11c-3.28.07-7.57-1.54-9.57.69s-.57,6.67-.64,10.13c-.13,5.49.11,11-.11,16.48-.09,2.3,1.86,5.93-3.38,5.82-4.82-.1-3.13-3.41-3.17-5.61-.17-7.83-.22-15.66,0-23.48.09-3.19-.7-4.55-4.07-4.14-2.13.27-4.33-.07-6.49.08-2.56.18-3-1.13-3-3.33s1-2.79,3-2.76C231,123.05,235.62,123,240.28,123Z"/><path class="cls-6" d="M106.33,103.68c-10.82,0-21.64,0-32.46,0-1.45,0-3.68.83-3.58-2,.09-2.59,2.18-1.52,3.38-1.52q32.72-.1,65.42,0c1.22,0,3.31-1,3.35,1.57,0,2.8-2.2,2-3.65,2C128,103.71,117.15,103.68,106.33,103.68Z"/><path class="cls-7" d="M44.31,142.22c0-5.3.12-10.61-.05-15.91-.09-2.61.75-3.46,3.36-3.39,2.39.06,3.62.48,3.59,3.28Q51,142.6,51.2,159c0,2.9-1.42,3.13-3.71,3.16s-3.29-.56-3.23-3C44.41,153.49,44.31,147.86,44.31,142.22Z"/><path class="cls-8" d="M12.94,104c-3.48,0-6.95,0-10.42,0C1,104-.11,103.74,0,101.88c.11-1.62,1.25-1.67,2.46-1.67q10.67,0,21.33,0c1.29,0,2.28.28,2.29,1.88S25.15,104,23.85,104Q18.39,104,12.94,104Z"/><path class="cls-9" d="M242.25,105.08,240.37,103c-1.31-1.71-.73-3.14.81-4.23a3.5,3.5,0,0,1,4.2-.05c1.54,1.06,2.21,2.46.82,4.18L243.71,105Z"/><path class="cls-1" d="M246.2,102.92c.35-2.53-.63-4.23-3.28-4.11s-2.9,2.07-2.55,4.21c-1.29,1.54-3.07,1-4.67,1-22.14,0-44.28-.08-66.42.11-4.06,0-4.71-1.38-5.12-5.11-2.23-20.32,3.13-38.7,14.94-54.87C192.51,25.8,210.76,14.91,233.7,12c22.54-2.87,42.44,3,60.09,16.86C309.31,41,318.6,57.12,322.32,76.47a83,83,0,0,1,1,24.16c-.21,2.13-.62,3.43-3.11,3.43-24,0-47.95,0-71.92-.1C247.62,104,246.91,103.28,246.2,102.92Z"/><path class="cls-10" d="M203.85,133.4c2.34,5.06,4.26,9.24,6.34,13.74a56.06,56.06,0,0,1-12.62,0Z"/><path class="cls-11" d="M218.29,40.8A25,25,0,1,1,243,66.08,24.84,24.84,0,0,1,218.29,40.8Z"/><path class="cls-11" d="M315.54,77a25,25,0,1,1-49.91.16c.15-13.65,11.72-25.11,25.3-25.05A24.73,24.73,0,0,1,315.54,77Z"/><path class="cls-11" d="M220.62,77a24.8,24.8,0,0,1-24.84,25.14,25,25,0,0,1-.29-50A24.79,24.79,0,0,1,220.62,77Z"/><path class="cls-10" d="M243.32,81.37a7.15,7.15,0,0,1,6.9,7.08,6.91,6.91,0,0,1-7.09,6.76,6.69,6.69,0,0,1-6.83-6.94A7,7,0,0,1,243.32,81.37Z"/><path class="cls-12" d="M243.37,78.14c-2-.35-3.21-1.29-3.09-3.31a2.58,2.58,0,0,1,2.92-2.65,2.93,2.93,0,0,1,3,3.23C246.16,77.15,244.84,77.88,243.37,78.14Z"/><path class="cls-13" d="M259.41,88.29c-.06,1.91-1,2.88-2.75,2.92-1.91,0-3.17-.93-3.22-2.9a2.71,2.71,0,0,1,2.78-2.87A2.86,2.86,0,0,1,259.41,88.29Z"/><path class="cls-14" d="M230,91.21c-1.92-.13-3-1.15-2.89-3.13a2.56,2.56,0,0,1,2.87-2.66,2.9,2.9,0,0,1,3,3.18A2.6,2.6,0,0,1,230,91.21Z"/></g></g></svg>